<mxfile host="Electron" modified="2023-06-09T12:20:19.389Z" agent="Mozilla/5.0 (Windows NT 10.0; Win64; x64) AppleWebKit/537.36 (KHTML, like Gecko) draw.io/21.2.1 Chrome/112.0.5615.87 Electron/24.1.2 Safari/537.36" etag="GFHKPGsW3BxDWwOpalPr" version="21.2.1" type="device">
  <diagram name="StrÃ¡nka-1" id="Xu6io6OtTxWNInEOqx_7">
    <mxGraphModel dx="2122" dy="758" grid="1" gridSize="10" guides="1" tooltips="1" connect="1" arrows="1" fold="1" page="1" pageScale="1" pageWidth="827" pageHeight="1169" math="0" shadow="0">
      <root>
        <mxCell id="0" />
        <mxCell id="1" parent="0" />
        <mxCell id="0uAWvTtr89uVzvBJugWZ-1" value="" style="rounded=0;whiteSpace=wrap;html=1;" vertex="1" parent="1">
          <mxGeometry x="-150" y="235" width="320" height="200" as="geometry" />
        </mxCell>
        <mxCell id="0uAWvTtr89uVzvBJugWZ-2" value="" style="shape=umlActor;verticalLabelPosition=bottom;verticalAlign=top;html=1;outlineConnect=0;" vertex="1" parent="1">
          <mxGeometry x="-110" y="365" width="30" height="60" as="geometry" />
        </mxCell>
        <mxCell id="0uAWvTtr89uVzvBJugWZ-21" value="" style="endArrow=none;html=1;rounded=0;dashed=1;strokeWidth=1;strokeColor=#8A8A8A;" edge="1" parent="1">
          <mxGeometry width="50" height="50" relative="1" as="geometry">
            <mxPoint x="-50" y="235" as="sourcePoint" />
            <mxPoint x="-50" y="435" as="targetPoint" />
          </mxGeometry>
        </mxCell>
        <mxCell id="0uAWvTtr89uVzvBJugWZ-22" value="" style="endArrow=none;html=1;rounded=0;dashed=1;strokeWidth=1;strokeColor=#8A8A8A;" edge="1" parent="1">
          <mxGeometry width="50" height="50" relative="1" as="geometry">
            <mxPoint x="-150" y="355" as="sourcePoint" />
            <mxPoint x="-50" y="355" as="targetPoint" />
          </mxGeometry>
        </mxCell>
        <mxCell id="0uAWvTtr89uVzvBJugWZ-24" value="" style="endArrow=classic;html=1;rounded=0;" edge="1" parent="1">
          <mxGeometry width="50" height="50" relative="1" as="geometry">
            <mxPoint x="120" y="445" as="sourcePoint" />
            <mxPoint x="170" y="445" as="targetPoint" />
          </mxGeometry>
        </mxCell>
        <mxCell id="0uAWvTtr89uVzvBJugWZ-25" value="" style="endArrow=classic;html=1;rounded=0;" edge="1" parent="1">
          <mxGeometry width="50" height="50" relative="1" as="geometry">
            <mxPoint x="-160" y="285" as="sourcePoint" />
            <mxPoint x="-160" y="235" as="targetPoint" />
          </mxGeometry>
        </mxCell>
        <mxCell id="0uAWvTtr89uVzvBJugWZ-26" value="y" style="text;html=1;strokeColor=none;fillColor=none;align=center;verticalAlign=middle;whiteSpace=wrap;rounded=0;" vertex="1" parent="1">
          <mxGeometry x="-180" y="245" width="20" height="30" as="geometry" />
        </mxCell>
        <mxCell id="0uAWvTtr89uVzvBJugWZ-27" value="x" style="text;html=1;strokeColor=none;fillColor=none;align=center;verticalAlign=middle;whiteSpace=wrap;rounded=0;" vertex="1" parent="1">
          <mxGeometry x="130" y="445" width="30" height="20" as="geometry" />
        </mxCell>
        <mxCell id="0uAWvTtr89uVzvBJugWZ-28" value="(0, 0)" style="text;html=1;strokeColor=none;fillColor=none;align=center;verticalAlign=middle;whiteSpace=wrap;rounded=0;" vertex="1" parent="1">
          <mxGeometry x="-180" y="435" width="50" height="20" as="geometry" />
        </mxCell>
        <mxCell id="0uAWvTtr89uVzvBJugWZ-29" value="80" style="text;html=1;strokeColor=none;fillColor=none;align=center;verticalAlign=middle;whiteSpace=wrap;rounded=0;" vertex="1" parent="1">
          <mxGeometry x="-180" y="340" width="30" height="30" as="geometry" />
        </mxCell>
        <mxCell id="0uAWvTtr89uVzvBJugWZ-30" value="100" style="text;html=1;strokeColor=none;fillColor=none;align=center;verticalAlign=middle;whiteSpace=wrap;rounded=0;" vertex="1" parent="1">
          <mxGeometry x="-65" y="435" width="30" height="30" as="geometry" />
        </mxCell>
        <mxCell id="0uAWvTtr89uVzvBJugWZ-31" value="(320, 300)" style="text;html=1;strokeColor=none;fillColor=none;align=center;verticalAlign=middle;whiteSpace=wrap;rounded=0;" vertex="1" parent="1">
          <mxGeometry x="140" y="215" width="70" height="20" as="geometry" />
        </mxCell>
        <mxCell id="0uAWvTtr89uVzvBJugWZ-35" value="" style="rounded=0;whiteSpace=wrap;html=1;" vertex="1" parent="1">
          <mxGeometry x="670" y="295" width="100" height="80" as="geometry" />
        </mxCell>
        <mxCell id="0uAWvTtr89uVzvBJugWZ-33" value="" style="shape=umlActor;verticalLabelPosition=bottom;verticalAlign=top;html=1;outlineConnect=0;" vertex="1" parent="1">
          <mxGeometry x="710" y="305" width="30" height="60" as="geometry" />
        </mxCell>
        <mxCell id="0uAWvTtr89uVzvBJugWZ-36" value="6 0 obj&lt;br&gt;&amp;nbsp; &amp;nbsp;&amp;lt;&amp;lt;&amp;nbsp; /Type /XObject&lt;br&gt;&amp;nbsp; &amp;nbsp; &amp;nbsp; &amp;nbsp;/Subtype /Form&lt;br&gt;&amp;nbsp; &amp;nbsp; &amp;nbsp; &amp;nbsp;/FormType 1&lt;br&gt;&amp;nbsp; &amp;nbsp; &amp;nbsp; &amp;nbsp;&lt;b style=&quot;background-color: rgb(255, 153, 255);&quot;&gt;/BBox [0 0 100 80]&lt;/b&gt;&lt;br&gt;&amp;nbsp; &amp;nbsp; &amp;nbsp; &amp;nbsp;/Matrix [1 0 0 1 0 0]&lt;br&gt;&amp;nbsp; &amp;nbsp; &amp;nbsp; &amp;nbsp;/Resources &amp;lt;&amp;lt; /ProcSet [/PDF] &amp;gt;&amp;gt;&lt;br&gt;&amp;nbsp; &amp;nbsp; &amp;nbsp; &amp;nbsp;/Length 58&lt;br&gt;&amp;nbsp; &amp;nbsp;&amp;gt;&amp;gt;&lt;br&gt;&lt;br&gt;stream&lt;br&gt;&amp;nbsp; &amp;nbsp; 0 0 m&lt;br&gt;&amp;nbsp; &amp;nbsp; 0 1000 l&lt;br&gt;&amp;nbsp; &amp;nbsp; 1000 1000 l&lt;br&gt;&amp;nbsp; &amp;nbsp; 1000 0 l&lt;br&gt;&amp;nbsp; &amp;nbsp; f&lt;br&gt;endstream&lt;br&gt;endobj" style="text;html=1;strokeColor=none;fillColor=none;align=left;verticalAlign=middle;whiteSpace=wrap;rounded=0;fontFamily=Lucida Console;" vertex="1" parent="1">
          <mxGeometry x="290" y="200" width="290" height="270" as="geometry" />
        </mxCell>
        <mxCell id="0uAWvTtr89uVzvBJugWZ-37" value="" style="group" vertex="1" connectable="0" parent="1">
          <mxGeometry x="-10" y="255" width="139.36037742929716" height="150" as="geometry" />
        </mxCell>
        <mxCell id="0uAWvTtr89uVzvBJugWZ-4" value="" style="rounded=0;whiteSpace=wrap;html=1;" vertex="1" parent="0uAWvTtr89uVzvBJugWZ-37">
          <mxGeometry x="10" y="70" width="100" height="80" as="geometry" />
        </mxCell>
        <mxCell id="0uAWvTtr89uVzvBJugWZ-11" value="" style="shape=parallelogram;perimeter=parallelogramPerimeter;whiteSpace=wrap;html=1;fixedSize=1;" vertex="1" parent="0uAWvTtr89uVzvBJugWZ-37">
          <mxGeometry x="30" width="80" height="10" as="geometry" />
        </mxCell>
        <mxCell id="0uAWvTtr89uVzvBJugWZ-17" value="" style="shape=parallelogram;perimeter=parallelogramPerimeter;whiteSpace=wrap;html=1;fixedSize=1;direction=south;flipH=1;" vertex="1" parent="0uAWvTtr89uVzvBJugWZ-37">
          <mxGeometry x="110" y="50" width="20" height="100" as="geometry" />
        </mxCell>
        <mxCell id="0uAWvTtr89uVzvBJugWZ-15" value="" style="shape=parallelogram;perimeter=parallelogramPerimeter;whiteSpace=wrap;html=1;fixedSize=1;rotation=333;flipH=1;size=-20;" vertex="1" parent="0uAWvTtr89uVzvBJugWZ-37">
          <mxGeometry x="104.22000000000003" y="1.6200000000000045" width="20.73" height="68.46" as="geometry" />
        </mxCell>
        <mxCell id="0uAWvTtr89uVzvBJugWZ-9" value="" style="shape=trapezoid;perimeter=trapezoidPerimeter;whiteSpace=wrap;html=1;fixedSize=1;size=30;" vertex="1" parent="0uAWvTtr89uVzvBJugWZ-37">
          <mxGeometry y="10" width="120" height="60" as="geometry" />
        </mxCell>
        <mxCell id="0uAWvTtr89uVzvBJugWZ-19" value="" style="rounded=0;whiteSpace=wrap;html=1;" vertex="1" parent="0uAWvTtr89uVzvBJugWZ-37">
          <mxGeometry x="60" y="90" width="30" height="60" as="geometry" />
        </mxCell>
        <mxCell id="0uAWvTtr89uVzvBJugWZ-38" value="" style="endArrow=classic;html=1;rounded=0;" edge="1" parent="1">
          <mxGeometry width="50" height="50" relative="1" as="geometry">
            <mxPoint x="720" y="385" as="sourcePoint" />
            <mxPoint x="770" y="385" as="targetPoint" />
          </mxGeometry>
        </mxCell>
        <mxCell id="0uAWvTtr89uVzvBJugWZ-39" value="x" style="text;html=1;strokeColor=none;fillColor=none;align=center;verticalAlign=middle;whiteSpace=wrap;rounded=0;" vertex="1" parent="1">
          <mxGeometry x="730" y="385" width="30" height="20" as="geometry" />
        </mxCell>
        <mxCell id="0uAWvTtr89uVzvBJugWZ-40" value="" style="endArrow=classic;html=1;rounded=0;" edge="1" parent="1">
          <mxGeometry width="50" height="50" relative="1" as="geometry">
            <mxPoint x="660" y="345" as="sourcePoint" />
            <mxPoint x="660" y="295" as="targetPoint" />
          </mxGeometry>
        </mxCell>
        <mxCell id="0uAWvTtr89uVzvBJugWZ-41" value="y" style="text;html=1;strokeColor=none;fillColor=none;align=center;verticalAlign=middle;whiteSpace=wrap;rounded=0;" vertex="1" parent="1">
          <mxGeometry x="640" y="305" width="20" height="30" as="geometry" />
        </mxCell>
        <mxCell id="0uAWvTtr89uVzvBJugWZ-42" value="&lt;span style=&quot;background-color: rgb(255, 153, 255);&quot;&gt;(0, 0)&lt;/span&gt;" style="text;html=1;strokeColor=none;fillColor=none;align=center;verticalAlign=middle;whiteSpace=wrap;rounded=0;" vertex="1" parent="1">
          <mxGeometry x="640" y="375" width="50" height="20" as="geometry" />
        </mxCell>
        <mxCell id="0uAWvTtr89uVzvBJugWZ-43" value="&lt;span style=&quot;background-color: rgb(255, 153, 255);&quot;&gt;(100, 80)&lt;/span&gt;" style="text;html=1;strokeColor=none;fillColor=none;align=center;verticalAlign=middle;whiteSpace=wrap;rounded=0;" vertex="1" parent="1">
          <mxGeometry x="730" y="275" width="70" height="20" as="geometry" />
        </mxCell>
        <mxCell id="0uAWvTtr89uVzvBJugWZ-44" value="Form Space" style="text;html=1;strokeColor=none;fillColor=none;align=center;verticalAlign=middle;whiteSpace=wrap;rounded=0;fontSize=20;fontStyle=1" vertex="1" parent="1">
          <mxGeometry x="-75" y="150" width="170" height="40" as="geometry" />
        </mxCell>
        <mxCell id="0uAWvTtr89uVzvBJugWZ-45" value="Form XObject" style="text;html=1;strokeColor=none;fillColor=none;align=center;verticalAlign=middle;whiteSpace=wrap;rounded=0;fontSize=20;fontStyle=1" vertex="1" parent="1">
          <mxGeometry x="350" y="150" width="170" height="40" as="geometry" />
        </mxCell>
        <mxCell id="0uAWvTtr89uVzvBJugWZ-46" value="Clipped according to BBox&amp;nbsp;" style="text;html=1;strokeColor=none;fillColor=none;align=center;verticalAlign=middle;whiteSpace=wrap;rounded=0;fontSize=20;fontStyle=1" vertex="1" parent="1">
          <mxGeometry x="627.5" y="160" width="185" height="40" as="geometry" />
        </mxCell>
        <mxCell id="0uAWvTtr89uVzvBJugWZ-47" value="" style="shape=flexArrow;endArrow=classic;html=1;rounded=0;" edge="1" parent="1">
          <mxGeometry width="50" height="50" relative="1" as="geometry">
            <mxPoint x="270" y="380" as="sourcePoint" />
            <mxPoint x="190" y="340" as="targetPoint" />
          </mxGeometry>
        </mxCell>
        <mxCell id="0uAWvTtr89uVzvBJugWZ-48" value="" style="shape=flexArrow;endArrow=classic;html=1;rounded=0;" edge="1" parent="1">
          <mxGeometry width="50" height="50" relative="1" as="geometry">
            <mxPoint x="567.5" y="340" as="sourcePoint" />
            <mxPoint x="627.5" y="340" as="targetPoint" />
          </mxGeometry>
        </mxCell>
      </root>
    </mxGraphModel>
  </diagram>
</mxfile>
